{"title":"Euro.Angels.Hardball.9.All.Anal.DVDRip.SS.x264.Iou1","uid":9321410,"size":1470885760,"categoryP":"porn","categoryS":"movies","magnet":"?xt=urn:btih:9c3aad380ca10ad585a66df8dcbf972c62451de3&amp;dn=Euro.Angels.Hardball.9.All.Anal.DVDRip.SS.x264.Iou1&amp;tr=udp%3A%2F%2Ftracker.openbittorrent.com%3A80&amp;tr=udp%3A%2F%2Fopen.demonii.com%3A1337&amp;tr=udp%3A%2F%2Ftracker.coppersurfer.tk%3A6969&amp;tr=udp%3A%2F%2Fexodus.desync.com%3A6969","seeders":0,"leechers":0,"uploader":"jaybee211","files":-1,"time":1386558566,"description":"Note. Quality on this one was a bit average, There was way to much color\n      Set Chroma saturation -130, Bilinear resize, Deblocking 0 0.\n\nGenre                                    : XXX\nFiles                                    : 5\nFormat                                   : MPEG-4\nFormat profile                           : Base Media / Version 2\nCodec ID                                 : mp42\nFile size                                : 1.36 GiB\nDuration                                 : 2h 14mn 22s\nOverall bit rate mode                    : Variable\nOverall bit rate                         : 1 459 Kbps\n\nVideo\nID                                       : 2\nFormat                                   : AVC\nFormat/Info                              : Advanced Video Codec\nFormat profile                           : &lt;a class=&quot;__cf_email__&quot; href=&quot;/cdn-cgi/l/email-protection&quot; data-cfemail=&quot;743c1d131c3438475a45&quot;&gt;[email&amp;#160;protected]&lt;/a&gt;&lt;script data-cfhash='f9e31' type=&quot;text/javascript&quot;&gt;\n/* &lt;![CDATA[ */!function(){try{var t=&quot;currentScript&quot;in document?document.currentScript:function(){for(var t=document.getElementsByTagName(&quot;script&quot;),e=t.length;e--;)if(t[e].getAttribute(&quot;data-cfhash&quot;))return t[e]}();if(t&amp;&amp;t.previousSibling){var e,r,n,i,c=t.previousSibling,a=c.getAttribute(&quot;data-cfemail&quot;);if(a){for(e=&quot;&quot;,r=parseInt(a.substr(0,2),16),n=2;a.length-n;n+=2)i=parseInt(a.substr(n,2),16)^r,e+=String.fromCharCode(i);e=document.createTextNode(e),c.parentNode.replaceChild(e,c)}t.parentNode.removeChild(t);}}catch(u){}}()/* ]]&gt; */&lt;/script&gt;\nFormat settings, CABAC                   : Yes\nFormat settings, ReFrames                : 4 frames\nCodec ID                                 : avc1\nCodec ID/Info                            : Advanced Video Coding\nDuration                                 : 2h 14mn 22s\nBit rate mode                            : Variable\nBit rate                                 : 1 391 Kbps\nMaximum bit rate                         : 8 000 Kbps\nWidth                                    : 720 pixels\nHeight                                   : 540 pixels\nDisplay aspect ratio                     : 4:3\nFrame rate mode                          : Constant\nFrame rate                               : 29.970 fps\nStandard                                 : NTSC\nColor space                              : YUV\nChroma subsampling                       : 4:2:0\nBit depth                                : 8 bits\nScan type                                : Progressive\nBits/(Pixel*Frame)                       : 0.119\nStream size                              : 1.29 GiB (95%)\n\nAudio\nID                                       : 1\nFormat                                   : AAC\nFormat/Info                              : Advanced Audio Codec\nFormat profile                           : LC\nCodec ID                                 : 40\nDuration                                 : 2h 14mn 22s\nBit rate mode                            : Variable\nBit rate                                 : 63.9 Kbps\nMaximum bit rate                         : 576 Kbps\nChannel(s)                               : 2 channels\nChannel positions                        : Front: L R\nSampling rate                            : 48.0 KHz\nCompression mode                         : Lossy\nDelay relative to video                  : 33ms\nStream size                              : 68 MiB (4%)\nLanguage                                 : English\n\nScreens. &lt;a href=&quot; http://bayimg.com/aAdHBaAFP&quot; rel=&quot;nofollow&quot; target=&quot;_NEW&quot;&gt; http://bayimg.com/aAdHBaAFP&lt;/a&gt;\n\n         &lt;a href=&quot; http://bayimg.com/aADhCAAFP&quot; rel=&quot;nofollow&quot; target=&quot;_NEW&quot;&gt; http://bayimg.com/aADhCAAFP&lt;/a&gt;\n\n         &lt;a href=&quot; http://bayimg.com/AADHeaAFp&quot; rel=&quot;nofollow&quot; target=&quot;_NEW&quot;&gt; http://bayimg.com/AADHeaAFp&lt;/a&gt;\n\n         &lt;a href=&quot; http://bayimg.com/AadhfAAFp&quot; rel=&quot;nofollow&quot; target=&quot;_NEW&quot;&gt; http://bayimg.com/AadhfAAFp&lt;/a&gt;\n\n         &lt;a href=&quot; http://bayimg.com/AaDhGAAfP&quot; rel=&quot;nofollow&quot; target=&quot;_NEW&quot;&gt; http://bayimg.com/AaDhGAAfP&lt;/a&gt;\n\nCovers. &lt;a href=&quot; http://bayimg.com/aAdHjAAFP&quot; rel=&quot;nofollow&quot; target=&quot;_NEW&quot;&gt; http://bayimg.com/aAdHjAAFP&lt;/a&gt;\n\nEnjoy.","torrent":{"xt":"urn:btih:9c3aad380ca10ad585a66df8dcbf972c62451de3","amp;dn":"Euro.Angels.Hardball.9.All.Anal.DVDRip.SS.x264.Iou1","amp;tr":["udp%3A%2F%2Ftracker.openbittorrent.com%3A80","udp%3A%2F%2Fopen.demonii.com%3A1337","udp%3A%2F%2Ftracker.coppersurfer.tk%3A6969","udp%3A%2F%2Fexodus.desync.com%3A6969"],"infoHash":"9c3aad380ca10ad585a66df8dcbf972c62451de3","infoHashBuffer":{"type":"Buffer","data":[156,58,173,56,12,161,10,213,133,166,109,248,220,191,151,44,98,69,29,227]},"announce":[],"urlList":[]}}